<svg xmlns="http://www.w3.org/2000/svg" xmlns:xlink="http://www.w3.org/1999/xlink" width="500" zoomAndPan="magnify" viewBox="0 0 375 374.999991" height="500" preserveAspectRatio="xMidYMid meet" version="1.2"><defs><clipPath id="edf62cd386"><path d="M 86.75 86 L 288.5 86 L 288.5 289 L 86.75 289 Z M 86.75 86 "/></clipPath><clipPath id="8d7fb0fbc5"><path d="M 154 141.644531 L 220.734375 141.644531 L 220.734375 233.144531 L 154 233.144531 Z M 154 141.644531 "/></clipPath></defs><g id="c2bad0c15e"><g clip-rule="nonzero" clip-path="url(#edf62cd386)"><path style=" stroke:none;fill-rule:nonzero;fill:#1fcbff;fill-opacity:1;" d="M 198.8125 247.148438 C 187.09375 257.753906 174.304688 266.863281 160.453125 274.480469 C 156.746094 276.652344 152.910156 278.667969 148.945312 280.523438 C 145.382812 279.042969 141.917969 277.371094 138.546875 275.496094 C 135.179688 273.621094 131.925781 271.558594 128.792969 269.3125 C 125.660156 267.066406 122.667969 264.644531 119.8125 262.054688 C 116.957031 259.460938 114.257812 256.714844 111.71875 253.816406 C 109.175781 250.914062 106.8125 247.878906 104.621094 244.707031 C 102.425781 241.535156 100.425781 238.246094 98.609375 234.84375 C 96.796875 231.441406 95.179688 227.945312 93.769531 224.359375 C 92.355469 220.773438 91.152344 217.117188 90.15625 213.390625 C 94.183594 215.882812 98.40625 218.28125 102.625 220.488281 C 110.011719 224.484375 117.597656 228.054688 125.386719 231.195312 C 133.175781 234.335938 141.117188 237.027344 149.207031 239.269531 C 157.300781 241.511719 165.496094 243.292969 173.789062 244.609375 C 182.082031 245.925781 190.425781 246.773438 198.8125 247.148438 Z M 141.273438 227.007812 C 137.429688 219.609375 134.007812 212.015625 131.011719 204.234375 C 128.015625 196.453125 125.457031 188.53125 123.34375 180.460938 C 121.230469 172.394531 119.574219 164.238281 118.371094 155.984375 C 117.167969 147.734375 116.425781 139.441406 116.148438 131.105469 C 116.148438 126.3125 116.148438 121.515625 116.148438 116.816406 C 113.835938 119.136719 111.644531 121.5625 109.570312 124.09375 C 107.496094 126.625 105.550781 129.253906 103.730469 131.976562 C 101.914062 134.699219 100.234375 137.503906 98.6875 140.390625 C 97.144531 143.277344 95.746094 146.234375 94.492188 149.257812 C 93.234375 152.28125 92.128906 155.359375 91.175781 158.488281 C 90.21875 161.621094 89.417969 164.792969 88.773438 168 C 88.128906 171.210938 87.640625 174.445312 87.3125 177.699219 C 86.980469 180.957031 86.8125 184.222656 86.800781 187.496094 C 86.796875 191.863281 87.082031 196.210938 87.664062 200.539062 C 91.246094 202.96875 94.886719 205.269531 98.597656 207.445312 C 112.105469 215.605469 126.359375 222.128906 141.367188 227.007812 Z M 200.636719 97.347656 C 204.761719 94.855469 208.980469 92.363281 213.296875 90.15625 C 209.589844 89.175781 205.84375 88.40625 202.050781 87.855469 C 198.257812 87.300781 194.445312 86.964844 190.613281 86.847656 C 186.785156 86.730469 182.957031 86.832031 179.140625 87.152344 C 175.320312 87.476562 171.53125 88.011719 167.773438 88.765625 C 164.015625 89.519531 160.3125 90.484375 156.667969 91.664062 C 153.019531 92.839844 149.449219 94.222656 145.960938 95.808594 C 142.472656 97.394531 139.085938 99.175781 135.800781 101.148438 C 132.515625 103.121094 129.351562 105.273438 126.3125 107.609375 C 126.3125 111.925781 125.738281 116.242188 125.640625 120.558594 C 125.421875 136.324219 126.925781 151.921875 130.148438 167.355469 C 134.625 160.300781 139.484375 153.515625 144.71875 147.003906 C 149.957031 140.492188 155.539062 134.289062 161.46875 128.402344 C 167.398438 122.511719 173.636719 116.972656 180.183594 111.78125 C 186.734375 106.589844 193.550781 101.777344 200.636719 97.347656 Z M 272.273438 153.929688 C 276.496094 156.136719 280.714844 158.535156 284.742188 161.027344 C 283.75 157.300781 282.546875 153.644531 281.132812 150.058594 C 279.71875 146.46875 278.105469 142.976562 276.289062 139.574219 C 274.476562 136.171875 272.472656 132.882812 270.28125 129.710938 C 268.089844 126.539062 265.722656 123.503906 263.183594 120.601562 C 260.640625 117.699219 257.945312 114.953125 255.089844 112.363281 C 252.234375 109.773438 249.238281 107.351562 246.105469 105.105469 C 242.972656 102.859375 239.722656 100.796875 236.351562 98.921875 C 232.980469 97.046875 229.515625 95.371094 225.953125 93.894531 C 221.992188 95.75 218.15625 97.765625 214.445312 99.9375 C 200.605469 107.574219 187.820312 116.683594 176.085938 127.269531 C 184.476562 127.644531 192.816406 128.492188 201.109375 129.808594 C 209.40625 131.125 217.597656 132.90625 225.691406 135.148438 C 233.785156 137.390625 241.726562 140.082031 249.515625 143.222656 C 257.300781 146.363281 264.890625 149.933594 272.273438 153.929688 Z M 258.753906 258.558594 C 261.078125 256.230469 263.285156 253.796875 265.375 251.25 C 267.460938 248.707031 269.417969 246.066406 271.246094 243.328125 C 273.074219 240.589844 274.765625 237.769531 276.316406 234.867188 C 277.867188 231.964844 279.273438 228.992188 280.535156 225.953125 C 281.792969 222.914062 282.902344 219.816406 283.859375 216.667969 C 284.8125 213.519531 285.613281 210.328125 286.257812 207.101562 C 286.898438 203.875 287.382812 200.621094 287.707031 197.347656 C 288.03125 194.070312 288.191406 190.789062 288.195312 187.496094 C 288.199219 183.128906 287.914062 178.78125 287.332031 174.453125 C 283.75 172.089844 280.105469 169.785156 276.398438 167.550781 C 262.875 159.519531 248.617188 153.128906 233.625 148.367188 C 237.46875 155.769531 240.890625 163.359375 243.886719 171.140625 C 246.886719 178.921875 249.441406 186.847656 251.554688 194.914062 C 253.667969 202.980469 255.328125 211.140625 256.53125 219.390625 C 257.734375 227.644531 258.472656 235.9375 258.753906 244.269531 C 259.425781 249.066406 259.425781 253.859375 258.753906 258.558594 Z M 174.359375 277.742188 C 170.234375 280.234375 166.015625 282.726562 161.699219 284.933594 C 165.40625 285.914062 169.152344 286.683594 172.945312 287.234375 C 176.738281 287.789062 180.550781 288.125 184.382812 288.242188 C 188.210938 288.355469 192.039062 288.253906 195.855469 287.933594 C 199.675781 287.613281 203.464844 287.078125 207.222656 286.324219 C 210.980469 285.570312 214.683594 284.601562 218.328125 283.425781 C 221.976562 282.246094 225.542969 280.867188 229.035156 279.28125 C 232.523438 277.695312 235.910156 275.914062 239.195312 273.941406 C 242.480469 271.96875 245.644531 269.8125 248.683594 267.480469 C 248.683594 263.164062 249.257812 258.847656 249.355469 254.53125 C 249.570312 238.765625 248.070312 223.167969 244.847656 207.730469 C 240.367188 214.777344 235.507812 221.554688 230.269531 228.058594 C 225.03125 234.5625 219.449219 240.757812 213.519531 246.636719 C 207.589844 252.515625 201.351562 258.050781 194.804688 263.234375 C 188.257812 268.417969 181.441406 273.222656 174.359375 277.644531 Z M 174.359375 277.742188 "/></g><g clip-rule="nonzero" clip-path="url(#8d7fb0fbc5)"><path style=" stroke:none;fill-rule:nonzero;fill:#1fcbff;fill-opacity:1;" d="M 187.449219 141.644531 C 169.042969 141.644531 154.125 157.113281 154.125 176.199219 C 154.125 195.28125 166.230469 196.664062 187.449219 233.34375 C 208.601562 196.664062 220.773438 195.289062 220.773438 176.199219 C 220.773438 157.105469 205.851562 141.644531 187.449219 141.644531 Z M 187.449219 189.253906 C 186.605469 189.238281 185.773438 189.140625 184.953125 188.960938 C 184.128906 188.78125 183.332031 188.523438 182.558594 188.1875 C 181.789062 187.851562 181.058594 187.441406 180.367188 186.960938 C 179.675781 186.480469 179.035156 185.9375 178.453125 185.332031 C 177.867188 184.726562 177.347656 184.066406 176.894531 183.359375 C 176.4375 182.652344 176.054688 181.90625 175.746094 181.121094 C 175.441406 180.339844 175.210938 179.53125 175.0625 178.703125 C 174.910156 177.875 174.84375 177.039062 174.859375 176.199219 C 174.84375 175.355469 174.914062 174.523438 175.0625 173.695312 C 175.210938 172.867188 175.441406 172.058594 175.75 171.277344 C 176.058594 170.492188 176.441406 169.75 176.894531 169.039062 C 177.351562 168.332031 177.871094 167.675781 178.457031 167.070312 C 179.039062 166.464844 179.679688 165.921875 180.367188 165.441406 C 181.058594 164.960938 181.792969 164.554688 182.5625 164.21875 C 183.335938 163.878906 184.132812 163.621094 184.953125 163.441406 C 185.773438 163.261719 186.605469 163.164062 187.449219 163.148438 C 188.289062 163.164062 189.121094 163.261719 189.945312 163.441406 C 190.765625 163.621094 191.5625 163.878906 192.335938 164.21875 C 193.105469 164.554688 193.835938 164.960938 194.527344 165.441406 C 195.21875 165.921875 195.855469 166.464844 196.441406 167.070312 C 197.027344 167.675781 197.546875 168.332031 198 169.039062 C 198.457031 169.75 198.835938 170.492188 199.144531 171.277344 C 199.453125 172.058594 199.683594 172.867188 199.835938 173.695312 C 199.984375 174.523438 200.054688 175.355469 200.039062 176.199219 C 200.054688 177.039062 199.984375 177.875 199.835938 178.703125 C 199.6875 179.53125 199.457031 180.339844 199.148438 181.121094 C 198.839844 181.90625 198.457031 182.652344 198.003906 183.359375 C 197.546875 184.066406 197.027344 184.726562 196.445312 185.332031 C 195.859375 185.9375 195.222656 186.480469 194.53125 186.960938 C 193.839844 187.441406 193.109375 187.851562 192.335938 188.1875 C 191.566406 188.523438 190.765625 188.78125 189.945312 188.960938 C 189.121094 189.140625 188.289062 189.238281 187.449219 189.253906 Z M 187.449219 189.253906 "/></g></g></svg>